<svg width="534" height="150" viewBox="0 0 534 150" fill="none" xmlns="http://www.w3.org/2000/svg">
<path d="M107.953 115.281C107.375 114.51 107.062 113.573 107.062 112.609C107.062 111.646 107.375 110.708 107.953 109.937L109.734 107.562C109.9 107.342 110 107.08 110.025 106.805C110.05 106.531 109.998 106.255 109.875 106.008C109.751 105.761 109.562 105.554 109.327 105.409C109.093 105.264 108.823 105.187 108.547 105.187H103.352L102.016 103.406C101.438 102.635 101.125 101.698 101.125 100.734C101.125 99.7708 101.438 98.8333 102.016 98.0625L103.797 95.6875C103.962 95.467 104.063 95.2047 104.088 94.9302C104.113 94.6556 104.06 94.3796 103.937 94.133C103.814 93.8865 103.624 93.6791 103.39 93.5342C103.155 93.3893 102.885 93.3125 102.609 93.3125H75.1143L77.2696 87.9257L79.2913 82.8699L83.6376 88.3027C83.8664 88.5881 84.1926 88.7789 84.5534 88.8386L93.4597 90.323C93.5401 90.3365 93.6216 90.3435 93.7031 90.3437C93.9482 90.3438 94.1896 90.2831 94.4055 90.1672C94.6215 90.0512 94.8054 89.8836 94.9408 89.6793C95.0762 89.4749 95.1589 89.2402 95.1815 88.9961C95.204 88.7521 95.1658 88.5062 95.0702 88.2805L78.8594 49.9688V41.3594C78.8614 39.5753 78.4011 37.8212 77.5234 36.268L79.5288 35.266L78.2018 32.609L75.6665 33.8766C73.7353 32.0103 71.1544 30.9675 68.4688 30.9688H59.5625C56.8789 30.9691 54.3004 32.0117 52.3707 33.8766L49.8354 32.609L48.5084 35.266L50.5078 36.268C49.6301 37.8212 49.1699 39.5753 49.1719 41.3594V54.4041C42.4922 69.757 59.4541 84.4894 63.7054 87.8663L61.5263 93.3125H22.4531C22.0594 93.3125 21.6819 93.4689 21.4035 93.7473C21.1251 94.0256 20.9688 94.4032 20.9688 94.7969V106.672C20.9688 107.066 21.1251 107.443 21.4035 107.721C21.6819 108 22.0594 108.156 22.4531 108.156H26.9062V118.547C26.9062 118.941 27.0626 119.318 27.341 119.596C27.6194 119.875 27.9969 120.031 28.3906 120.031H108.547C108.823 120.031 109.093 119.954 109.327 119.81C109.562 119.665 109.751 119.457 109.875 119.211C109.998 118.964 110.05 118.688 110.025 118.414C110 118.139 109.9 117.877 109.734 117.656L107.953 115.281ZM85.6014 86.0034L79.986 78.9883L70.5231 67.9475C69.6595 66.9403 69.0318 65.7528 68.686 64.4719C68.3401 63.191 68.2848 61.849 68.5241 60.544C68.7634 59.2389 69.2912 58.0039 70.0691 56.929C70.8469 55.8541 71.855 54.9666 73.0198 54.3313L76.6477 52.3541L91.2836 86.952L85.6014 86.0034ZM59.5625 33.9375H68.4688C70.0098 33.9402 71.5112 34.4262 72.7616 35.3269L66.3209 38.5465C66.178 38.6181 66.0477 38.7124 65.9349 38.8255L64.0156 40.7448L62.0963 38.8255C61.9835 38.7124 61.8532 38.6181 61.7104 38.5465L55.2697 35.3269C56.5201 34.4262 58.0215 33.9402 59.5625 33.9375ZM59.5625 41.3594C59.8561 41.3594 60.1431 41.4464 60.3872 41.6095C60.6313 41.7726 60.8215 42.0045 60.9339 42.2757C61.0462 42.5469 61.0756 42.8454 61.0184 43.1333C60.9611 43.4213 60.8197 43.6858 60.6121 43.8934C60.4045 44.101 60.14 44.2423 59.8521 44.2996C59.5641 44.3569 59.2657 44.3275 58.9945 44.2151C58.7232 44.1028 58.4914 43.9125 58.3283 43.6684C58.1652 43.4243 58.0781 43.1373 58.0781 42.8438C58.0781 42.4501 58.2345 42.0725 58.5129 41.7941C58.7913 41.5158 59.1688 41.3594 59.5625 41.3594ZM68.4688 41.3594C68.7623 41.3594 69.0493 41.4464 69.2934 41.6095C69.5375 41.7726 69.7278 42.0045 69.8401 42.2757C69.9525 42.5469 69.9819 42.8454 69.9246 43.1333C69.8673 43.4213 69.726 43.6858 69.5184 43.8934C69.3108 44.101 69.0463 44.2423 68.7583 44.2996C68.4704 44.3569 68.1719 44.3275 67.9007 44.2151C67.6295 44.1028 67.3976 43.9125 67.2345 43.6684C67.0714 43.4243 66.9844 43.1373 66.9844 42.8438C66.9844 42.4501 67.1408 42.0725 67.4191 41.7941C67.6975 41.5158 68.0751 41.3594 68.4688 41.3594ZM52.007 55.3333C52.0956 55.1405 52.1411 54.9309 52.1406 54.7187V41.3594C52.1478 40.0369 52.5119 38.741 53.1945 37.6084L56.7748 39.4C56.2361 39.8307 55.8052 40.381 55.5164 41.0073C55.2276 41.6336 55.0887 42.3186 55.1108 43.008C55.133 43.6973 55.3156 44.372 55.644 44.9785C55.9725 45.585 56.4378 46.1065 57.0031 46.5017C57.5683 46.8969 58.2179 47.1549 58.9003 47.2551C59.5827 47.3554 60.2791 47.2952 60.9341 47.0793C61.5891 46.8634 62.1848 46.4978 62.6739 46.0115C63.1629 45.5251 63.5319 44.9315 63.7514 44.2777C63.917 44.345 64.1024 44.345 64.268 44.2777C64.4864 44.9332 64.8549 45.5288 65.344 46.0168C65.8332 46.5049 66.4295 46.8721 67.0856 47.0891C67.7416 47.3062 68.4393 47.3671 69.123 47.267C69.8067 47.1669 70.4577 46.9086 71.024 46.5127C71.5903 46.1168 72.0564 45.5941 72.3852 44.9863C72.7139 44.3785 72.8962 43.7023 72.9177 43.0117C72.9391 42.321 72.799 41.6348 72.5085 41.0078C72.218 40.3808 71.7852 39.8303 71.2445 39.4L74.8367 37.6084C75.5194 38.741 75.8835 40.0369 75.8906 41.3594V49.3854L71.5993 51.7248C70.0463 52.5718 68.7022 53.7551 67.6652 55.1881C66.6282 56.6212 65.9244 58.2678 65.6053 60.0077C65.2862 61.7476 65.3598 63.5368 65.8208 65.2446C66.2818 66.9524 67.1185 68.5357 68.2698 69.8787L77.1479 80.2366L74.8857 85.8906H66.0032C63.1844 83.6863 45.6836 69.2434 52.007 55.3333ZM66.5049 88.8594H73.6982L71.917 93.3125H64.7237L66.5049 88.8594ZM23.9375 105.187V96.2812H99.6406C98.6801 97.5672 98.1611 99.1293 98.1611 100.734C98.1611 102.339 98.6801 103.902 99.6406 105.187H44.7188V102.219H83.3125V99.25H26.9062V102.219H32.8438V105.187H23.9375ZM35.8125 102.219H41.75V109.837L39.6051 108.406C39.3612 108.243 39.0745 108.156 38.7812 108.156C38.488 108.156 38.2013 108.243 37.9574 108.406L35.8125 109.837V102.219ZM105.578 117.062H29.875V108.156H32.8438V112.609C32.8437 112.878 32.9166 113.142 33.0547 113.372C33.1928 113.603 33.3909 113.792 33.6278 113.918C33.8648 114.045 34.1317 114.105 34.4001 114.092C34.6686 114.079 34.9284 113.994 35.152 113.844L38.7812 111.422L42.4105 113.841C42.6339 113.99 42.8935 114.076 43.1616 114.089C43.4298 114.102 43.6965 114.043 43.9333 113.916C44.1702 113.79 44.3683 113.601 44.5066 113.371C44.6449 113.141 44.7183 112.878 44.7188 112.609V108.156H105.578C104.618 109.442 104.099 111.004 104.099 112.609C104.099 114.214 104.618 115.776 105.578 117.062Z" fill="#1E3A8A"/>
<path d="M47.6875 111.125H53.625V114.094H47.6875V111.125Z" fill="#1E3A8A"/>
<path d="M56.5938 111.125H62.5312V114.094H56.5938V111.125Z" fill="#1E3A8A"/>
<path d="M65.5 111.125H71.4375V114.094H65.5V111.125Z" fill="#1E3A8A"/>
<path d="M74.4062 111.125H80.3438V114.094H74.4062V111.125Z" fill="#1E3A8A"/>
<path d="M83.3125 111.125H89.25V114.094H83.3125V111.125Z" fill="#1E3A8A"/>
<path d="M92.2188 111.125H98.1562V114.094H92.2188V111.125Z" fill="#1E3A8A"/>
<path d="M86.2812 99.25H95.1875V102.219H86.2812V99.25Z" fill="#1E3A8A"/>
<path d="M76.7144 58.9225L75.0668 56.4525C72.5849 58.1061 71.2846 59.8666 71.0916 61.8156C70.8719 64.0273 72.0639 66.3503 74.8412 69.1276L76.9401 67.0287C74.8709 64.958 73.9238 63.3489 74.0455 62.1095C74.1465 61.1016 75.0193 60.0536 76.7144 58.9225Z" fill="#1E3A8A"/>
<path d="M58.0781 62.1406C59.2592 62.1406 60.3918 61.6715 61.227 60.8363C62.0621 60.0012 62.5312 58.8685 62.5312 57.6875H59.5625C59.5625 58.0812 59.4061 58.4587 59.1277 58.7371C58.8494 59.0155 58.4718 59.1719 58.0781 59.1719C57.6844 59.1719 57.3069 59.0155 57.0285 58.7371C56.7501 58.4587 56.5938 58.0812 56.5938 57.6875H53.625C53.625 58.8685 54.0942 60.0012 54.9293 60.8363C55.7644 61.6715 56.8971 62.1406 58.0781 62.1406Z" fill="#1E3A8A"/>
<path d="M62.5312 65.1094H59.5625C59.5625 65.5031 59.4061 65.8806 59.1277 66.159C58.8494 66.4374 58.4718 66.5938 58.0781 66.5938C57.6844 66.5938 57.3069 66.4374 57.0285 66.159C56.7501 65.8806 56.5938 65.5031 56.5938 65.1094H53.625C53.625 66.2904 54.0942 67.4231 54.9293 68.2582C55.7644 69.0933 56.8971 69.5625 58.0781 69.5625C59.2592 69.5625 60.3918 69.0933 61.227 68.2582C62.0621 67.4231 62.5312 66.2904 62.5312 65.1094Z" fill="#1E3A8A"/>
<path d="M64.0156 72.5312C64.0156 72.9249 63.8592 73.3025 63.5809 73.5809C63.3025 73.8592 62.9249 74.0156 62.5312 74.0156C62.1376 74.0156 61.76 73.8592 61.4816 73.5809C61.2033 73.3025 61.0469 72.9249 61.0469 72.5312H58.0781C58.0781 73.7123 58.5473 74.845 59.3824 75.6801C60.2175 76.5152 61.3502 76.9844 62.5312 76.9844C63.7123 76.9844 64.845 76.5152 65.6801 75.6801C66.5152 74.845 66.9844 73.7123 66.9844 72.5312H64.0156Z" fill="#1E3A8A"/>
<path d="M76.3154 70.6137L78.4146 68.5144L79.8988 69.9986L77.7995 72.0978L76.3154 70.6137Z" fill="#1E3A8A"/>
<path d="M138.164 73.186C139.452 73.354 140.67 73.76 141.818 74.404V76H128.84V74.404C129.288 74.152 129.764 73.928 130.268 73.732C130.772 73.508 131.304 73.326 131.864 73.186V49.414C131.22 49.274 130.646 49.092 130.142 48.868C129.666 48.644 129.232 48.42 128.84 48.196V46.6H150.806C150.806 47.16 150.778 47.776 150.722 48.448C150.666 49.092 150.596 49.764 150.512 50.464C150.456 51.136 150.372 51.808 150.26 52.48C150.176 53.124 150.078 53.726 149.966 54.286H148.244L146.312 49.33H138.164V60.376H143.918L145.808 57.142H147.068C147.18 57.87 147.25 58.64 147.278 59.452C147.334 60.264 147.362 61.076 147.362 61.888C147.334 62.728 147.292 63.54 147.236 64.324C147.208 65.108 147.152 65.808 147.068 66.424H145.808L143.918 63.106H138.164V73.186Z" fill="#1E3A8A"/>
<path d="M175.09 46.6C175.034 47.86 174.936 49.162 174.796 50.506C174.656 51.85 174.474 53.11 174.25 54.286H172.528L170.596 49.33H162.742V59.62H167.866L169.714 56.386H171.058C171.198 57.758 171.268 59.284 171.268 60.964C171.268 62.644 171.198 64.212 171.058 65.668H169.714L167.866 62.35H162.742V73.27H170.932L173.158 67.936H174.88C174.992 68.468 175.104 69.07 175.216 69.742C175.328 70.414 175.412 71.114 175.468 71.842C175.552 72.542 175.608 73.256 175.636 73.984C175.692 74.712 175.72 75.384 175.72 76H152.998V74.404C153.474 74.152 154.006 73.914 154.594 73.69C155.182 73.466 155.798 73.298 156.442 73.186V49.414C155.882 49.302 155.28 49.148 154.636 48.952C154.02 48.728 153.474 48.476 152.998 48.196V46.6H175.09Z" fill="#1E3A8A"/>
<path d="M178.346 46.6H192.122V48.196C191.534 48.504 190.876 48.77 190.148 48.994C189.448 49.19 188.762 49.33 188.09 49.414V73.27H196.196L199.01 65.752H200.732C200.844 66.396 200.942 67.152 201.026 68.02C201.138 68.888 201.222 69.798 201.278 70.75C201.334 71.702 201.376 72.64 201.404 73.564C201.432 74.488 201.432 75.3 201.404 76H178.346V74.404C178.99 74.068 179.592 73.802 180.152 73.606C180.74 73.41 181.286 73.27 181.79 73.186V49.414C180.418 49.19 179.27 48.784 178.346 48.196V46.6Z" fill="#1E3A8A"/>
<path d="M208.586 72.514C208.894 72.822 209.328 73.116 209.888 73.396C210.448 73.648 211.19 73.774 212.114 73.774C213.654 73.774 214.928 73.382 215.936 72.598C216.972 71.786 217.49 70.666 217.49 69.238C217.49 68.202 217.154 67.334 216.482 66.634C215.838 65.934 215.012 65.29 214.004 64.702C212.996 64.114 211.918 63.54 210.77 62.98C209.622 62.392 208.544 61.706 207.536 60.922C206.528 60.138 205.688 59.214 205.016 58.15C204.372 57.058 204.05 55.714 204.05 54.118C204.05 52.746 204.302 51.556 204.806 50.548C205.31 49.54 205.996 48.714 206.864 48.07C207.76 47.398 208.81 46.908 210.014 46.6C211.218 46.264 212.52 46.096 213.92 46.096C215.628 46.096 217.21 46.222 218.666 46.474C220.15 46.698 221.48 47.062 222.656 47.566C222.628 48.126 222.572 48.77 222.488 49.498C222.432 50.226 222.348 50.954 222.236 51.682C222.124 52.382 221.998 53.054 221.858 53.698C221.746 54.314 221.634 54.832 221.522 55.252H219.8L217.868 49.498C217.532 49.33 217.028 49.176 216.356 49.036C215.712 48.896 215.04 48.826 214.34 48.826C213.164 48.826 212.17 49.134 211.358 49.75C210.546 50.366 210.14 51.262 210.14 52.438C210.14 53.502 210.476 54.412 211.148 55.168C211.82 55.896 212.66 56.568 213.668 57.184C214.676 57.8 215.768 58.416 216.944 59.032C218.148 59.62 219.254 60.306 220.262 61.09C221.27 61.874 222.11 62.798 222.782 63.862C223.454 64.898 223.79 66.186 223.79 67.726C223.79 70.526 222.838 72.696 220.934 74.236C219.058 75.748 216.286 76.504 212.618 76.504C211.722 76.504 210.812 76.448 209.888 76.336C208.992 76.224 208.138 76.07 207.326 75.874C206.514 75.678 205.786 75.468 205.142 75.244C204.526 75.02 204.064 74.782 203.756 74.53C203.784 73.886 203.854 73.2 203.966 72.472C204.078 71.716 204.19 70.974 204.302 70.246C204.442 69.49 204.582 68.776 204.722 68.104C204.862 67.432 205.002 66.844 205.142 66.34H206.864L208.586 72.514Z" fill="#1E3A8A"/>
<path d="M248.344 46.6C248.288 47.86 248.19 49.162 248.05 50.506C247.91 51.85 247.728 53.11 247.504 54.286H245.782L243.85 49.33H235.996V59.62H241.12L242.968 56.386H244.312C244.452 57.758 244.522 59.284 244.522 60.964C244.522 62.644 244.452 64.212 244.312 65.668H242.968L241.12 62.35H235.996V73.27H244.186L246.412 67.936H248.134C248.246 68.468 248.358 69.07 248.47 69.742C248.582 70.414 248.666 71.114 248.722 71.842C248.806 72.542 248.862 73.256 248.89 73.984C248.946 74.712 248.974 75.384 248.974 76H226.252V74.404C226.728 74.152 227.26 73.914 227.848 73.69C228.436 73.466 229.052 73.298 229.696 73.186V49.414C229.136 49.302 228.534 49.148 227.89 48.952C227.274 48.728 226.728 48.476 226.252 48.196V46.6H248.344Z" fill="#1E3A8A"/>
<path d="M260.924 73.186C262.212 73.354 263.43 73.76 264.578 74.404V76H251.6V74.404C252.048 74.152 252.524 73.928 253.028 73.732C253.532 73.508 254.064 73.326 254.624 73.186V49.414C253.98 49.274 253.406 49.092 252.902 48.868C252.426 48.644 251.992 48.42 251.6 48.196V46.6H273.566C273.566 47.16 273.538 47.776 273.482 48.448C273.426 49.092 273.356 49.764 273.272 50.464C273.216 51.136 273.132 51.808 273.02 52.48C272.936 53.124 272.838 53.726 272.726 54.286H271.004L269.072 49.33H260.924V60.376H266.678L268.568 57.142H269.828C269.94 57.87 270.01 58.64 270.038 59.452C270.094 60.264 270.122 61.076 270.122 61.888C270.094 62.728 270.052 63.54 269.996 64.324C269.968 65.108 269.912 65.808 269.828 66.424H268.568L266.678 63.106H260.924V73.186Z" fill="#1E3A8A"/>
<path d="M297.85 46.6C297.794 47.86 297.696 49.162 297.556 50.506C297.416 51.85 297.234 53.11 297.01 54.286H295.288L293.356 49.33H285.502V59.62H290.626L292.474 56.386H293.818C293.958 57.758 294.028 59.284 294.028 60.964C294.028 62.644 293.958 64.212 293.818 65.668H292.474L290.626 62.35H285.502V73.27H293.692L295.918 67.936H297.64C297.752 68.468 297.864 69.07 297.976 69.742C298.088 70.414 298.172 71.114 298.228 71.842C298.312 72.542 298.368 73.256 298.396 73.984C298.452 74.712 298.48 75.384 298.48 76H275.758V74.404C276.234 74.152 276.766 73.914 277.354 73.69C277.942 73.466 278.558 73.298 279.202 73.186V49.414C278.642 49.302 278.04 49.148 277.396 48.952C276.78 48.728 276.234 48.476 275.758 48.196V46.6H297.85Z" fill="#1E3A8A"/>
<path d="M312.426 76V74.404C312.902 74.124 313.434 73.886 314.022 73.69C314.61 73.466 315.226 73.298 315.87 73.186V49.414C315.226 49.274 314.596 49.106 313.98 48.91C313.392 48.686 312.874 48.448 312.426 48.196V46.6H317.298C317.774 46.6 318.362 46.586 319.062 46.558C319.762 46.53 320.49 46.502 321.246 46.474C322.002 46.418 322.73 46.376 323.43 46.348C324.158 46.292 324.774 46.264 325.278 46.264C327.714 46.264 329.884 46.586 331.788 47.23C333.72 47.874 335.344 48.812 336.66 50.044C338.004 51.276 339.026 52.802 339.726 54.622C340.454 56.442 340.818 58.542 340.818 60.922C340.818 63.246 340.482 65.36 339.81 67.264C339.138 69.168 338.13 70.792 336.786 72.136C335.442 73.48 333.734 74.53 331.662 75.286C329.618 76.014 327.21 76.378 324.438 76.378C324.074 76.378 323.584 76.35 322.968 76.294C322.352 76.266 321.694 76.224 320.994 76.168C320.294 76.14 319.594 76.098 318.894 76.042C318.194 76.014 317.578 76 317.046 76H312.426ZM324.732 48.994C324.228 48.994 323.724 49.008 323.22 49.036C322.716 49.064 322.282 49.106 321.918 49.162V73.48C322.03 73.508 322.226 73.536 322.506 73.564C322.786 73.564 323.066 73.578 323.346 73.606C323.654 73.606 323.948 73.62 324.228 73.648C324.508 73.648 324.718 73.648 324.858 73.648C326.482 73.648 327.854 73.312 328.974 72.64C330.122 71.968 331.06 71.058 331.788 69.91C332.516 68.762 333.048 67.418 333.384 65.878C333.72 64.338 333.888 62.7 333.888 60.964C333.888 59.424 333.706 57.94 333.342 56.512C333.006 55.084 332.474 53.81 331.746 52.69C331.018 51.57 330.066 50.674 328.89 50.002C327.742 49.33 326.356 48.994 324.732 48.994Z" fill="#1E3A8A"/>
<path d="M365.444 46.6C365.388 47.86 365.29 49.162 365.15 50.506C365.01 51.85 364.828 53.11 364.604 54.286H362.882L360.95 49.33H353.096V59.62H358.22L360.068 56.386H361.412C361.552 57.758 361.622 59.284 361.622 60.964C361.622 62.644 361.552 64.212 361.412 65.668H360.068L358.22 62.35H353.096V73.27H361.286L363.512 67.936H365.234C365.346 68.468 365.458 69.07 365.57 69.742C365.682 70.414 365.766 71.114 365.822 71.842C365.906 72.542 365.962 73.256 365.99 73.984C366.046 74.712 366.074 75.384 366.074 76H343.352V74.404C343.828 74.152 344.36 73.914 344.948 73.69C345.536 73.466 346.152 73.298 346.796 73.186V49.414C346.236 49.302 345.634 49.148 344.99 48.952C344.374 48.728 343.828 48.476 343.352 48.196V46.6H365.444Z" fill="#1E3A8A"/>
<path d="M378.443 73.186C379.087 73.326 379.661 73.508 380.165 73.732C380.669 73.956 381.159 74.18 381.635 74.404V76H368.699V74.404C369.315 74.068 369.903 73.816 370.463 73.648C371.023 73.452 371.583 73.298 372.143 73.186V49.414C370.743 49.106 369.595 48.7 368.699 48.196V46.6H373.151C373.711 46.6 374.341 46.586 375.041 46.558C375.769 46.53 376.525 46.502 377.309 46.474C378.093 46.418 378.891 46.376 379.703 46.348C380.515 46.292 381.299 46.264 382.055 46.264C383.595 46.264 385.009 46.446 386.297 46.81C387.613 47.146 388.733 47.664 389.657 48.364C390.609 49.064 391.337 49.946 391.841 51.01C392.373 52.046 392.639 53.264 392.639 54.664C392.639 56.68 392.149 58.332 391.169 59.62C390.189 60.908 388.845 61.874 387.137 62.518C388.257 64.282 389.447 66.088 390.707 67.936C391.967 69.756 393.297 71.52 394.697 73.228L396.713 74.572V76H389.699L387.893 74.614C386.605 73.074 385.457 71.296 384.449 69.28C383.469 67.236 382.601 65.234 381.845 63.274H378.443V73.186ZM380.543 48.994C379.675 48.994 378.975 49.078 378.443 49.246V60.964H380.921C382.349 60.964 383.567 60.46 384.575 59.452C385.583 58.416 386.087 56.89 386.087 54.874C386.087 53.838 385.947 52.956 385.667 52.228C385.387 51.472 384.995 50.856 384.491 50.38C383.987 49.904 383.399 49.554 382.727 49.33C382.055 49.106 381.327 48.994 380.543 48.994Z" fill="#1E3A8A"/>
<path d="M403.739 72.514C404.047 72.822 404.481 73.116 405.041 73.396C405.601 73.648 406.343 73.774 407.267 73.774C408.807 73.774 410.081 73.382 411.089 72.598C412.125 71.786 412.643 70.666 412.643 69.238C412.643 68.202 412.307 67.334 411.635 66.634C410.991 65.934 410.165 65.29 409.157 64.702C408.149 64.114 407.071 63.54 405.923 62.98C404.775 62.392 403.697 61.706 402.689 60.922C401.681 60.138 400.841 59.214 400.169 58.15C399.525 57.058 399.203 55.714 399.203 54.118C399.203 52.746 399.455 51.556 399.959 50.548C400.463 49.54 401.149 48.714 402.017 48.07C402.913 47.398 403.963 46.908 405.167 46.6C406.371 46.264 407.673 46.096 409.073 46.096C410.781 46.096 412.363 46.222 413.819 46.474C415.303 46.698 416.633 47.062 417.809 47.566C417.781 48.126 417.725 48.77 417.641 49.498C417.585 50.226 417.501 50.954 417.389 51.682C417.277 52.382 417.151 53.054 417.011 53.698C416.899 54.314 416.787 54.832 416.675 55.252H414.953L413.021 49.498C412.685 49.33 412.181 49.176 411.509 49.036C410.865 48.896 410.193 48.826 409.493 48.826C408.317 48.826 407.323 49.134 406.511 49.75C405.699 50.366 405.293 51.262 405.293 52.438C405.293 53.502 405.629 54.412 406.301 55.168C406.973 55.896 407.813 56.568 408.821 57.184C409.829 57.8 410.921 58.416 412.097 59.032C413.301 59.62 414.407 60.306 415.415 61.09C416.423 61.874 417.263 62.798 417.935 63.862C418.607 64.898 418.943 66.186 418.943 67.726C418.943 70.526 417.991 72.696 416.087 74.236C414.211 75.748 411.439 76.504 407.771 76.504C406.875 76.504 405.965 76.448 405.041 76.336C404.145 76.224 403.291 76.07 402.479 75.874C401.667 75.678 400.939 75.468 400.295 75.244C399.679 75.02 399.217 74.782 398.909 74.53C398.937 73.886 399.007 73.2 399.119 72.472C399.231 71.716 399.343 70.974 399.455 70.246C399.595 69.49 399.735 68.776 399.875 68.104C400.015 67.432 400.155 66.844 400.295 66.34H402.017L403.739 72.514Z" fill="#1E3A8A"/>
<path d="M421.404 46.6H435.18V48.196C434.592 48.504 433.934 48.77 433.206 48.994C432.506 49.19 431.82 49.33 431.148 49.414V73.27H439.254L442.068 65.752H443.79C443.902 66.396 444 67.152 444.084 68.02C444.196 68.888 444.28 69.798 444.336 70.75C444.392 71.702 444.434 72.64 444.462 73.564C444.49 74.488 444.49 75.3 444.462 76H421.404V74.404C422.048 74.068 422.65 73.802 423.21 73.606C423.798 73.41 424.344 73.27 424.848 73.186V49.414C423.476 49.19 422.328 48.784 421.404 48.196V46.6Z" fill="#1E3A8A"/>
<path d="M467.983 46.6C467.927 47.86 467.829 49.162 467.689 50.506C467.549 51.85 467.367 53.11 467.143 54.286H465.421L463.489 49.33H455.635V59.62H460.759L462.607 56.386H463.951C464.091 57.758 464.161 59.284 464.161 60.964C464.161 62.644 464.091 64.212 463.951 65.668H462.607L460.759 62.35H455.635V73.27H463.825L466.051 67.936H467.773C467.885 68.468 467.997 69.07 468.109 69.742C468.221 70.414 468.305 71.114 468.361 71.842C468.445 72.542 468.501 73.256 468.529 73.984C468.585 74.712 468.613 75.384 468.613 76H445.891V74.404C446.367 74.152 446.899 73.914 447.487 73.69C448.075 73.466 448.691 73.298 449.335 73.186V49.414C448.775 49.302 448.173 49.148 447.529 48.952C446.913 48.728 446.367 48.476 445.891 48.196V46.6H467.983Z" fill="#1E3A8A"/>
<path d="M480.982 73.186C481.626 73.326 482.2 73.508 482.704 73.732C483.208 73.956 483.698 74.18 484.174 74.404V76H471.238V74.404C471.854 74.068 472.442 73.816 473.002 73.648C473.562 73.452 474.122 73.298 474.682 73.186V49.414C473.282 49.106 472.134 48.7 471.238 48.196V46.6H475.69C476.25 46.6 476.88 46.586 477.58 46.558C478.308 46.53 479.064 46.502 479.848 46.474C480.632 46.418 481.43 46.376 482.242 46.348C483.054 46.292 483.838 46.264 484.594 46.264C486.134 46.264 487.548 46.446 488.836 46.81C490.152 47.146 491.272 47.664 492.196 48.364C493.148 49.064 493.876 49.946 494.38 51.01C494.912 52.046 495.178 53.264 495.178 54.664C495.178 56.68 494.688 58.332 493.708 59.62C492.728 60.908 491.384 61.874 489.676 62.518C490.796 64.282 491.986 66.088 493.246 67.936C494.506 69.756 495.836 71.52 497.236 73.228L499.252 74.572V76H492.238L490.432 74.614C489.144 73.074 487.996 71.296 486.988 69.28C486.008 67.236 485.14 65.234 484.384 63.274H480.982V73.186ZM483.082 48.994C482.214 48.994 481.514 49.078 480.982 49.246V60.964H483.46C484.888 60.964 486.106 60.46 487.114 59.452C488.122 58.416 488.626 56.89 488.626 54.874C488.626 53.838 488.486 52.956 488.206 52.228C487.926 51.472 487.534 50.856 487.03 50.38C486.526 49.904 485.938 49.554 485.266 49.33C484.594 49.106 483.866 48.994 483.082 48.994Z" fill="#1E3A8A"/>
<path d="M514.048 76H500.944V74.404C502.064 73.788 503.198 73.382 504.346 73.186V49.414C503.786 49.33 503.198 49.176 502.582 48.952C501.966 48.728 501.42 48.476 500.944 48.196V46.6H514.048V48.196C513.544 48.504 512.984 48.77 512.368 48.994C511.78 49.19 511.206 49.33 510.646 49.414V73.186C511.206 73.298 511.78 73.452 512.368 73.648C512.984 73.844 513.544 74.096 514.048 74.404V76ZM503.716 41.602C503.716 40.706 504.038 40.02 504.682 39.544C505.326 39.068 506.278 38.83 507.538 38.83C508.798 38.83 509.736 39.068 510.352 39.544C510.968 40.02 511.276 40.706 511.276 41.602C511.276 42.47 510.968 43.142 510.352 43.618C509.736 44.094 508.798 44.332 507.538 44.332C506.278 44.332 505.326 44.094 504.682 43.618C504.038 43.142 503.716 42.47 503.716 41.602Z" fill="#1E3A8A"/>
<path d="M138.698 111.426C138.611 111.807 138.464 112.171 138.256 112.518C138.048 112.865 137.788 113.177 137.476 113.454C137.181 113.714 136.835 113.922 136.436 114.078C136.055 114.234 135.639 114.312 135.188 114.312C133.472 114.312 132.189 113.766 131.34 112.674C130.491 111.582 130.066 109.883 130.066 107.578C130.066 105.359 130.603 103.669 131.678 102.508C132.77 101.347 134.235 100.766 136.072 100.766C136.713 100.766 137.216 100.801 137.58 100.87C137.944 100.922 138.343 101.026 138.776 101.182V96.268L136.8 96.06V95.384C137.303 95.176 137.883 94.994 138.542 94.838C139.218 94.682 139.859 94.552 140.466 94.448H141.116V112.518L142.832 112.726V113.272C142.329 113.515 141.809 113.723 141.272 113.896C140.735 114.069 140.206 114.191 139.686 114.26H139.036L138.802 111.426H138.698ZM135.708 112.7C136.557 112.7 137.233 112.431 137.736 111.894C138.239 111.357 138.585 110.629 138.776 109.71V102.378C138.481 102.205 138.135 102.083 137.736 102.014C137.337 101.945 136.826 101.91 136.202 101.91C135.023 101.91 134.122 102.43 133.498 103.47C132.874 104.493 132.562 105.862 132.562 107.578C132.562 108.289 132.623 108.956 132.744 109.58C132.865 110.187 133.056 110.724 133.316 111.192C133.576 111.66 133.897 112.033 134.278 112.31C134.677 112.57 135.153 112.7 135.708 112.7ZM145.424 108.852C145.424 107.76 145.45 106.694 145.502 105.654C145.554 104.597 145.58 103.548 145.58 102.508L143.864 102.3V101.624C144.419 101.416 144.982 101.234 145.554 101.078C146.143 100.922 146.715 100.792 147.27 100.688H147.92C147.92 101.988 147.894 103.279 147.842 104.562C147.79 105.845 147.764 107.119 147.764 108.384C147.764 109.06 147.799 109.667 147.868 110.204C147.955 110.741 148.093 111.192 148.284 111.556C148.492 111.92 148.769 112.206 149.116 112.414C149.463 112.605 149.905 112.7 150.442 112.7C151.222 112.7 151.872 112.423 152.392 111.868C152.929 111.296 153.345 110.559 153.64 109.658V102.508L151.95 102.3V101.624C152.487 101.416 153.042 101.234 153.614 101.078C154.203 100.922 154.775 100.792 155.33 100.688H155.98V112.518L157.696 112.726V113.272C157.193 113.497 156.682 113.697 156.162 113.87C155.659 114.043 155.131 114.173 154.576 114.26H153.926L153.744 111.166H153.64C153.553 111.53 153.397 111.903 153.172 112.284C152.964 112.648 152.687 112.986 152.34 113.298C151.993 113.593 151.595 113.835 151.144 114.026C150.711 114.217 150.234 114.312 149.714 114.312C149.021 114.312 148.405 114.225 147.868 114.052C147.348 113.896 146.906 113.61 146.542 113.194C146.178 112.778 145.901 112.223 145.71 111.53C145.519 110.819 145.424 109.927 145.424 108.852ZM146.568 96.762C146.568 96.346 146.698 96.0167 146.958 95.774C147.218 95.514 147.556 95.384 147.972 95.384C148.388 95.384 148.726 95.514 148.986 95.774C149.246 96.0167 149.376 96.346 149.376 96.762C149.376 97.1607 149.246 97.4813 148.986 97.724C148.726 97.9667 148.388 98.088 147.972 98.088C147.556 98.088 147.218 97.9667 146.958 97.724C146.698 97.4813 146.568 97.1607 146.568 96.762ZM152.34 96.762C152.34 96.346 152.47 96.0167 152.73 95.774C152.99 95.514 153.328 95.384 153.744 95.384C154.16 95.384 154.498 95.514 154.758 95.774C155.018 96.0167 155.148 96.346 155.148 96.762C155.148 97.1607 155.018 97.4813 154.758 97.724C154.498 97.9667 154.16 98.088 153.744 98.088C153.328 98.088 152.99 97.9667 152.73 97.724C152.47 97.4813 152.34 97.1607 152.34 96.762ZM169.454 112.18C169.142 112.787 168.63 113.298 167.92 113.714C167.226 114.113 166.412 114.312 165.476 114.312C164.453 114.312 163.56 114.156 162.798 113.844C162.052 113.515 161.428 113.055 160.926 112.466C160.423 111.859 160.042 111.14 159.782 110.308C159.539 109.459 159.418 108.523 159.418 107.5C159.418 105.299 159.955 103.617 161.03 102.456C162.104 101.277 163.569 100.688 165.424 100.688C166.273 100.688 167.027 100.766 167.686 100.922C168.362 101.061 168.934 101.251 169.402 101.494C169.35 102.066 169.254 102.707 169.116 103.418C168.977 104.129 168.804 104.718 168.596 105.186H167.894L166.802 102.092C166.68 102.005 166.542 101.945 166.386 101.91C166.23 101.858 165.97 101.832 165.606 101.832C164.427 101.832 163.517 102.265 162.876 103.132C162.234 103.981 161.914 105.429 161.914 107.474C161.914 108.133 162 108.774 162.174 109.398C162.364 110.022 162.642 110.585 163.006 111.088C163.387 111.573 163.855 111.963 164.41 112.258C164.982 112.553 165.64 112.7 166.386 112.7C166.992 112.7 167.521 112.613 167.972 112.44C168.422 112.267 168.804 112.059 169.116 111.816L169.454 112.18ZM181.123 110.594C181.123 110.975 181.132 111.305 181.149 111.582C181.166 111.859 181.184 112.154 181.201 112.466L182.995 112.726V113.272C182.562 113.497 182.076 113.697 181.539 113.87C181.019 114.043 180.516 114.173 180.031 114.26H179.381C179.208 113.861 179.104 113.428 179.069 112.96C179.034 112.475 179.008 111.946 178.991 111.374H178.861C178.792 111.721 178.653 112.076 178.445 112.44C178.254 112.787 177.994 113.099 177.665 113.376C177.353 113.653 176.98 113.879 176.547 114.052C176.114 114.225 175.62 114.312 175.065 114.312C174.008 114.312 173.141 113.991 172.465 113.35C171.806 112.709 171.477 111.868 171.477 110.828C171.477 110.031 171.633 109.381 171.945 108.878C172.274 108.358 172.751 107.951 173.375 107.656C173.999 107.361 174.77 107.153 175.689 107.032C176.608 106.893 177.674 106.789 178.887 106.72C178.956 105.975 178.974 105.307 178.939 104.718C178.922 104.111 178.826 103.6 178.653 103.184C178.497 102.751 178.254 102.421 177.925 102.196C177.613 101.953 177.197 101.832 176.677 101.832C176.434 101.832 176.157 101.849 175.845 101.884C175.55 101.901 175.256 101.971 174.961 102.092L173.739 105.212H173.063C172.89 104.692 172.734 104.155 172.595 103.6C172.474 103.045 172.396 102.499 172.361 101.962C173.02 101.563 173.748 101.251 174.545 101.026C175.36 100.801 176.261 100.688 177.249 100.688C178.133 100.688 178.835 100.818 179.355 101.078C179.892 101.321 180.3 101.641 180.577 102.04C180.854 102.439 181.036 102.881 181.123 103.366C181.21 103.851 181.253 104.337 181.253 104.822C181.253 105.862 181.227 106.867 181.175 107.838C181.14 108.791 181.123 109.71 181.123 110.594ZM176.105 112.7C176.538 112.7 176.92 112.613 177.249 112.44C177.578 112.267 177.856 112.059 178.081 111.816C178.306 111.573 178.488 111.331 178.627 111.088C178.766 110.828 178.861 110.611 178.913 110.438V107.708C177.908 107.708 177.084 107.76 176.443 107.864C175.802 107.968 175.299 108.133 174.935 108.358C174.571 108.583 174.32 108.869 174.181 109.216C174.042 109.545 173.973 109.927 173.973 110.36C173.973 111.105 174.164 111.686 174.545 112.102C174.926 112.501 175.446 112.7 176.105 112.7ZM198.592 114H193.002V113.35C193.47 113.107 193.981 112.899 194.536 112.726V106.564C194.536 105.247 194.345 104.207 193.964 103.444C193.583 102.681 192.889 102.3 191.884 102.3C191.451 102.3 191.043 102.378 190.662 102.534C190.298 102.69 189.969 102.907 189.674 103.184C189.397 103.444 189.154 103.747 188.946 104.094C188.738 104.423 188.573 104.77 188.452 105.134V112.726C188.989 112.83 189.509 113.038 190.012 113.35V114H184.396V113.35C184.829 113.125 185.401 112.917 186.112 112.726V102.508L184.396 102.3V101.624C184.847 101.433 185.367 101.26 185.956 101.104C186.545 100.948 187.161 100.809 187.802 100.688H188.452V103.6H188.478C188.842 102.803 189.362 102.118 190.038 101.546C190.731 100.974 191.563 100.688 192.534 100.688C193.227 100.688 193.843 100.775 194.38 100.948C194.935 101.104 195.394 101.39 195.758 101.806C196.122 102.222 196.399 102.785 196.59 103.496C196.781 104.189 196.876 105.073 196.876 106.148V112.726C197.569 112.847 198.141 113.055 198.592 113.35V114ZM210.623 112.18C210.485 112.475 210.268 112.752 209.973 113.012C209.679 113.272 209.341 113.497 208.959 113.688C208.578 113.879 208.162 114.026 207.711 114.13C207.261 114.251 206.801 114.312 206.333 114.312C205.311 114.312 204.409 114.156 203.629 113.844C202.849 113.515 202.199 113.055 201.679 112.466C201.159 111.859 200.761 111.14 200.483 110.308C200.223 109.476 200.093 108.54 200.093 107.5C200.093 105.281 200.605 103.591 201.627 102.43C202.65 101.269 204.097 100.688 205.969 100.688C206.576 100.688 207.174 100.775 207.763 100.948C208.353 101.104 208.873 101.373 209.323 101.754C209.791 102.135 210.164 102.647 210.441 103.288C210.736 103.912 210.883 104.692 210.883 105.628C210.883 105.923 210.866 106.226 210.831 106.538C210.814 106.833 210.771 107.153 210.701 107.5H202.589C202.589 108.228 202.676 108.913 202.849 109.554C203.04 110.178 203.317 110.724 203.681 111.192C204.045 111.66 204.505 112.033 205.059 112.31C205.614 112.57 206.264 112.7 207.009 112.7C207.616 112.7 208.231 112.613 208.855 112.44C209.479 112.267 209.947 112.041 210.259 111.764L210.623 112.18ZM205.865 101.832C204.877 101.832 204.123 102.17 203.603 102.846C203.083 103.505 202.771 104.675 202.667 106.356H208.387C208.405 106.2 208.413 106.053 208.413 105.914C208.431 105.758 208.439 105.611 208.439 105.472C208.439 104.363 208.231 103.479 207.815 102.82C207.399 102.161 206.749 101.832 205.865 101.832ZM229.528 112.18C229.216 112.787 228.704 113.298 227.994 113.714C227.3 114.113 226.486 114.312 225.55 114.312C224.527 114.312 223.634 114.156 222.872 113.844C222.126 113.515 221.502 113.055 221 112.466C220.497 111.859 220.116 111.14 219.856 110.308C219.613 109.459 219.492 108.523 219.492 107.5C219.492 105.299 220.029 103.617 221.104 102.456C222.178 101.277 223.643 100.688 225.498 100.688C226.347 100.688 227.101 100.766 227.76 100.922C228.436 101.061 229.008 101.251 229.476 101.494C229.424 102.066 229.328 102.707 229.19 103.418C229.051 104.129 228.878 104.718 228.67 105.186H227.968L226.876 102.092C226.754 102.005 226.616 101.945 226.46 101.91C226.304 101.858 226.044 101.832 225.68 101.832C224.501 101.832 223.591 102.265 222.95 103.132C222.308 103.981 221.988 105.429 221.988 107.474C221.988 108.133 222.074 108.774 222.248 109.398C222.438 110.022 222.716 110.585 223.08 111.088C223.461 111.573 223.929 111.963 224.484 112.258C225.056 112.553 225.714 112.7 226.46 112.7C227.066 112.7 227.595 112.613 228.046 112.44C228.496 112.267 228.878 112.059 229.19 111.816L229.528 112.18ZM232.539 108.852C232.539 107.76 232.565 106.694 232.617 105.654C232.669 104.597 232.695 103.548 232.695 102.508L230.979 102.3V101.624C231.534 101.416 232.097 101.234 232.669 101.078C233.258 100.922 233.83 100.792 234.385 100.688H235.035C235.035 101.988 235.009 103.279 234.957 104.562C234.905 105.845 234.879 107.119 234.879 108.384C234.879 109.06 234.914 109.667 234.983 110.204C235.07 110.741 235.208 111.192 235.399 111.556C235.607 111.92 235.884 112.206 236.231 112.414C236.578 112.605 237.02 112.7 237.557 112.7C238.337 112.7 238.987 112.423 239.507 111.868C240.044 111.296 240.46 110.559 240.755 109.658V102.508L239.065 102.3V101.624C239.602 101.416 240.157 101.234 240.729 101.078C241.318 100.922 241.89 100.792 242.445 100.688H243.095V112.518L244.811 112.726V113.272C244.308 113.497 243.797 113.697 243.277 113.87C242.774 114.043 242.246 114.173 241.691 114.26H241.041L240.859 111.166H240.755C240.668 111.53 240.512 111.903 240.287 112.284C240.079 112.648 239.802 112.986 239.455 113.298C239.108 113.593 238.71 113.835 238.259 114.026C237.826 114.217 237.349 114.312 236.829 114.312C236.136 114.312 235.52 114.225 234.983 114.052C234.463 113.896 234.021 113.61 233.657 113.194C233.293 112.778 233.016 112.223 232.825 111.53C232.634 110.819 232.539 109.927 232.539 108.852ZM233.683 96.762C233.683 96.346 233.813 96.0167 234.073 95.774C234.333 95.514 234.671 95.384 235.087 95.384C235.503 95.384 235.841 95.514 236.101 95.774C236.361 96.0167 236.491 96.346 236.491 96.762C236.491 97.1607 236.361 97.4813 236.101 97.724C235.841 97.9667 235.503 98.088 235.087 98.088C234.671 98.088 234.333 97.9667 234.073 97.724C233.813 97.4813 233.683 97.1607 233.683 96.762ZM239.455 96.762C239.455 96.346 239.585 96.0167 239.845 95.774C240.105 95.514 240.443 95.384 240.859 95.384C241.275 95.384 241.613 95.514 241.873 95.774C242.133 96.0167 242.263 96.346 242.263 96.762C242.263 97.1607 242.133 97.4813 241.873 97.724C241.613 97.9667 241.275 98.088 240.859 98.088C240.443 98.088 240.105 97.9667 239.845 97.724C239.585 97.4813 239.455 97.1607 239.455 96.762ZM260.469 114H254.879V113.35C255.347 113.107 255.858 112.899 256.413 112.726V106.564C256.413 105.247 256.222 104.207 255.841 103.444C255.459 102.681 254.766 102.3 253.761 102.3C253.327 102.3 252.92 102.378 252.539 102.534C252.175 102.69 251.845 102.907 251.551 103.184C251.273 103.444 251.031 103.747 250.823 104.094C250.615 104.423 250.45 104.77 250.329 105.134V112.726C250.866 112.83 251.386 113.038 251.889 113.35V114H246.273V113.35C246.706 113.125 247.278 112.917 247.989 112.726V102.508L246.273 102.3V101.624C246.723 101.433 247.243 101.26 247.833 101.104C248.422 100.948 249.037 100.809 249.679 100.688H250.329V103.6H250.355C250.719 102.803 251.239 102.118 251.915 101.546C252.608 100.974 253.44 100.688 254.411 100.688C255.104 100.688 255.719 100.775 256.257 100.948C256.811 101.104 257.271 101.39 257.635 101.806C257.999 102.222 258.276 102.785 258.467 103.496C258.657 104.189 258.753 105.073 258.753 106.148V112.726C259.446 112.847 260.018 113.055 260.469 113.35V114ZM270.602 111.426C270.516 111.807 270.368 112.171 270.16 112.518C269.952 112.865 269.692 113.177 269.38 113.454C269.086 113.714 268.739 113.922 268.34 114.078C267.959 114.234 267.543 114.312 267.092 114.312C265.376 114.312 264.094 113.766 263.244 112.674C262.395 111.582 261.97 109.883 261.97 107.578C261.97 105.359 262.508 103.669 263.582 102.508C264.674 101.347 266.139 100.766 267.976 100.766C268.618 100.766 269.12 100.801 269.484 100.87C269.848 100.922 270.247 101.026 270.68 101.182V96.268L268.704 96.06V95.384C269.207 95.176 269.788 94.994 270.446 94.838C271.122 94.682 271.764 94.552 272.37 94.448H273.02V112.518L274.736 112.726V113.272C274.234 113.515 273.714 113.723 273.176 113.896C272.639 114.069 272.11 114.191 271.59 114.26H270.94L270.706 111.426H270.602ZM267.612 112.7C268.462 112.7 269.138 112.431 269.64 111.894C270.143 111.357 270.49 110.629 270.68 109.71V102.378C270.386 102.205 270.039 102.083 269.64 102.014C269.242 101.945 268.73 101.91 268.106 101.91C266.928 101.91 266.026 102.43 265.402 103.47C264.778 104.493 264.466 105.862 264.466 107.578C264.466 108.289 264.527 108.956 264.648 109.58C264.77 110.187 264.96 110.724 265.22 111.192C265.48 111.66 265.801 112.033 266.182 112.31C266.581 112.57 267.058 112.7 267.612 112.7ZM282.164 114H276.392V113.35C276.652 113.211 276.921 113.099 277.198 113.012C277.476 112.908 277.779 112.813 278.108 112.726V102.508L276.392 102.3V101.624C276.895 101.416 277.441 101.234 278.03 101.078C278.62 100.922 279.209 100.792 279.798 100.688H280.448V112.726C280.795 112.813 281.107 112.908 281.384 113.012C281.662 113.099 281.922 113.211 282.164 113.35V114ZM277.614 96.58C277.614 96.112 277.762 95.7393 278.056 95.462C278.368 95.1847 278.776 95.046 279.278 95.046C279.781 95.046 280.18 95.1847 280.474 95.462C280.769 95.7393 280.916 96.112 280.916 96.58C280.916 97.048 280.769 97.4207 280.474 97.698C280.18 97.958 279.781 98.088 279.278 98.088C278.776 98.088 278.368 97.958 278.056 97.698C277.762 97.4207 277.614 97.048 277.614 96.58ZM284.212 107.5C284.212 106.408 284.351 105.446 284.628 104.614C284.923 103.765 285.339 103.054 285.876 102.482C286.414 101.893 287.055 101.451 287.8 101.156C288.563 100.844 289.404 100.688 290.322 100.688C291.397 100.688 292.324 100.853 293.104 101.182C293.884 101.511 294.517 101.979 295.002 102.586C295.505 103.175 295.869 103.886 296.094 104.718C296.337 105.55 296.458 106.477 296.458 107.5C296.458 109.684 295.904 111.365 294.794 112.544C293.685 113.723 292.194 114.312 290.322 114.312C289.282 114.312 288.381 114.156 287.618 113.844C286.856 113.515 286.223 113.055 285.72 112.466C285.218 111.859 284.836 111.14 284.576 110.308C284.334 109.459 284.212 108.523 284.212 107.5ZM286.708 107.5C286.708 108.28 286.778 109.017 286.916 109.71C287.072 110.403 287.306 111.01 287.618 111.53C287.948 112.033 288.372 112.431 288.892 112.726C289.412 113.021 290.036 113.168 290.764 113.168C291.7 113.168 292.463 112.709 293.052 111.79C293.659 110.871 293.962 109.441 293.962 107.5C293.962 106.703 293.884 105.966 293.728 105.29C293.59 104.597 293.364 103.999 293.052 103.496C292.74 102.976 292.342 102.569 291.856 102.274C291.371 101.979 290.79 101.832 290.114 101.832C289.092 101.832 288.268 102.291 287.644 103.21C287.02 104.129 286.708 105.559 286.708 107.5ZM303.94 100.688C304.876 100.688 305.664 100.783 306.306 100.974C306.947 101.147 307.484 101.425 307.918 101.806C308.94 101.113 310.006 100.61 311.116 100.298C311.254 100.489 311.35 100.723 311.402 101C311.471 101.277 311.506 101.537 311.506 101.78L311.168 102.404H308.438C308.871 103.028 309.088 103.851 309.088 104.874C309.088 106.122 308.646 107.136 307.762 107.916C306.895 108.696 305.621 109.086 303.94 109.086C303.61 109.086 303.342 109.077 303.134 109.06C302.926 109.043 302.692 109.017 302.432 108.982C302.345 109.138 302.241 109.311 302.12 109.502C302.016 109.693 301.964 109.892 301.964 110.1C301.964 110.447 302.163 110.724 302.562 110.932C302.96 111.123 303.454 111.296 304.044 111.452C304.65 111.608 305.3 111.773 305.994 111.946C306.704 112.102 307.363 112.327 307.97 112.622C308.576 112.899 309.079 113.272 309.478 113.74C309.894 114.191 310.11 114.78 310.128 115.508C310.145 116.132 309.998 116.695 309.686 117.198C309.391 117.701 308.975 118.117 308.438 118.446C307.9 118.793 307.25 119.053 306.488 119.226C305.742 119.417 304.919 119.512 304.018 119.512C302.128 119.512 300.698 119.191 299.728 118.55C298.774 117.909 298.298 117.103 298.298 116.132C298.298 115.664 298.367 115.257 298.506 114.91C298.662 114.563 298.878 114.26 299.156 114C299.433 113.74 299.78 113.515 300.196 113.324C300.612 113.116 301.088 112.925 301.626 112.752C301.244 112.579 300.924 112.345 300.664 112.05C300.421 111.738 300.3 111.365 300.3 110.932C300.3 110.533 300.464 110.143 300.794 109.762C301.14 109.363 301.487 109.051 301.834 108.826C300.846 108.566 300.083 108.072 299.546 107.344C299.026 106.616 298.766 105.793 298.766 104.874C298.766 104.285 298.878 103.739 299.104 103.236C299.329 102.716 299.658 102.265 300.092 101.884C300.525 101.503 301.062 101.208 301.704 101C302.345 100.792 303.09 100.688 303.94 100.688ZM307.788 116.106C307.788 115.551 307.597 115.109 307.216 114.78C306.852 114.451 306.392 114.182 305.838 113.974C305.283 113.766 304.685 113.593 304.044 113.454C303.402 113.315 302.804 113.159 302.25 112.986C301.591 113.385 301.158 113.801 300.95 114.234C300.742 114.685 300.638 115.144 300.638 115.612C300.638 116.531 300.967 117.215 301.626 117.666C302.284 118.134 303.238 118.368 304.486 118.368C305.127 118.368 305.656 118.307 306.072 118.186C306.505 118.065 306.843 117.9 307.086 117.692C307.346 117.501 307.528 117.267 307.632 116.99C307.736 116.713 307.788 116.418 307.788 116.106ZM301.106 104.874C301.106 105.29 301.149 105.689 301.236 106.07C301.34 106.434 301.496 106.755 301.704 107.032C301.929 107.309 302.224 107.535 302.588 107.708C302.952 107.864 303.402 107.942 303.94 107.942C304.945 107.942 305.664 107.647 306.098 107.058C306.531 106.469 306.748 105.741 306.748 104.874C306.748 103.938 306.531 103.201 306.098 102.664C305.682 102.109 304.962 101.832 303.94 101.832C302.882 101.832 302.146 102.101 301.73 102.638C301.314 103.158 301.106 103.903 301.106 104.874ZM307.372 95.306C307.216 95.6873 307.025 96.0687 306.8 96.45C306.592 96.8313 306.34 97.1693 306.046 97.464C305.751 97.7587 305.422 98.0013 305.058 98.192C304.711 98.3827 304.321 98.478 303.888 98.478C303.42 98.478 303.004 98.4 302.64 98.244C302.276 98.0707 301.946 97.8453 301.652 97.568C301.357 97.2733 301.097 96.9353 300.872 96.554C300.646 96.1553 300.456 95.722 300.3 95.254L301.028 94.916C301.149 95.1413 301.314 95.358 301.522 95.566C301.747 95.7567 301.99 95.93 302.25 96.086C302.51 96.242 302.787 96.372 303.082 96.476C303.376 96.5627 303.654 96.606 303.914 96.606C305.092 96.6407 306.037 96.112 306.748 95.02L307.372 95.306ZM318.041 114H312.269V113.35C312.841 113.073 313.413 112.865 313.985 112.726V96.268L312.009 96.06V95.384C312.46 95.176 313.023 94.994 313.699 94.838C314.375 94.682 315.034 94.552 315.675 94.448H316.325V112.726C316.897 112.865 317.469 113.073 318.041 113.35V114ZM321.025 108.852C321.025 107.76 321.051 106.694 321.103 105.654C321.155 104.597 321.181 103.548 321.181 102.508L319.465 102.3V101.624C320.02 101.416 320.583 101.234 321.155 101.078C321.745 100.922 322.317 100.792 322.871 100.688H323.521C323.521 101.988 323.495 103.279 323.443 104.562C323.391 105.845 323.365 107.119 323.365 108.384C323.365 109.06 323.4 109.667 323.469 110.204C323.556 110.741 323.695 111.192 323.885 111.556C324.093 111.92 324.371 112.206 324.717 112.414C325.064 112.605 325.506 112.7 326.043 112.7C326.823 112.7 327.473 112.423 327.993 111.868C328.531 111.296 328.947 110.559 329.241 109.658V102.508L327.551 102.3V101.624C328.089 101.416 328.643 101.234 329.215 101.078C329.805 100.922 330.377 100.792 330.931 100.688H331.581V112.518L333.297 112.726V113.272C332.795 113.497 332.283 113.697 331.763 113.87C331.261 114.043 330.732 114.173 330.177 114.26H329.527L329.345 111.166H329.241C329.155 111.53 328.999 111.903 328.773 112.284C328.565 112.648 328.288 112.986 327.941 113.298C327.595 113.593 327.196 113.835 326.745 114.026C326.312 114.217 325.835 114.312 325.315 114.312C324.622 114.312 324.007 114.225 323.469 114.052C322.949 113.896 322.507 113.61 322.143 113.194C321.779 112.778 321.502 112.223 321.311 111.53C321.121 110.819 321.025 109.927 321.025 108.852Z" fill="#5F70A3"/>
</svg>
